<?xml version="1.0" standalone="no"?>
<!DOCTYPE svg PUBLIC "-//W3C//DTD SVG 20010904//EN"
 "http://www.w3.org/TR/2001/REC-SVG-20010904/DTD/svg10.dtd">
<svg version="1.0" xmlns="http://www.w3.org/2000/svg"
 width="2000" height="1500" viewBox="0 0 2000 1500"
 preserveAspectRatio="xMidYMid meet">

<g transform="translate(0.000000,1500.000000) scale(0.100000,-0.100000)"
fill="#000000" stroke="none">
<path d="M6835 12170 c-1003 -88 -1881 -445 -2645 -1078 -151 -125 -461 -436
-586 -587 -598 -725 -941 -1526 -1061 -2480 -14 -112 -18 -217 -18 -520 0
-303 4 -408 18 -520 120 -954 463 -1755 1061 -2480 125 -151 435 -462 586
-587 1026 -849 2306 -1219 3627 -1048 731 95 1463 382 2071 812 394 279 756
630 1044 1013 78 105 235 335 245 360 4 13 -11 15 -96 15 l-100 0 -50 -73
c-664 -984 -1682 -1667 -2835 -1902 -1094 -222 -2236 -32 -3186 530 -953 565
-1667 1455 -2004 2502 -447 1390 -188 2925 691 4086 302 398 688 764 1093
1034 288 192 614 360 920 473 698 259 1425 343 2158 250 1283 -164 2434 -876
3163 -1957 l50 -73 100 0 c85 0 100 2 96 15 -10 25 -167 256 -245 360 -645
858 -1573 1472 -2614 1730 -206 51 -408 87 -619 111 -167 18 -709 27 -864 14z"/>
<path d="M5375 9468 c-3 -7 -4 -886 -3 -1953 l3 -1940 253 -3 252 -2 0 885 0
885 995 0 995 0 2 -882 3 -883 253 -3 252 -2 0 1955 0 1955 -252 -2 -253 -3
-3 -857 -2 -858 -995 0 -995 0 0 860 0 860 -250 0 c-191 0 -252 -3 -255 -12z"/>
<path d="M9250 7525 l0 -1955 255 0 255 0 0 800 0 800 311 -2 311 -3 463 -795
463 -795 302 -3 c264 -2 302 0 297 13 -4 8 -217 367 -475 797 -258 431 -474
793 -480 805 -12 21 -10 23 30 33 366 91 612 277 765 579 41 82 87 222 104
321 17 97 17 324 0 420 -83 472 -419 795 -936 899 -164 33 -357 41 -1027 41
l-638 0 0 -1955z m1426 1524 c129 -14 228 -40 321 -86 149 -72 271 -224 319
-398 24 -89 30 -310 11 -411 -53 -280 -234 -471 -517 -545 -81 -22 -108 -23
-567 -26 l-483 -4 0 740 0 741 410 0 c226 0 454 -5 506 -11z"/>
<path d="M14108 7958 l-3 -1523 -23 -70 c-66 -195 -191 -319 -363 -360 -84
-20 -267 -20 -344 0 -156 40 -255 123 -328 276 -48 99 -77 212 -77 299 l0 50
-255 0 -255 0 0 -56 c0 -150 51 -366 117 -499 209 -417 691 -618 1233 -515
193 37 361 119 495 242 148 137 232 281 286 488 36 140 40 339 37 1790 l-3
1395 -257 3 -258 2 -2 -1522z"/>
</g>
</svg>
