<svg xmlns="http://www.w3.org/2000/svg" version="1.1" xmlns:xlink="http://www.w3.org/1999/xlink" xmlns:svgjs="http://svgjs.dev/svgjs" width="2000" height="1500" viewBox="0 0 2000 1500"><rect width="2000" height="1500" fill="#000000"></rect><g transform="matrix(0.75,0,0,0.75,249.090909090909,282.7536437246963)"><svg viewBox="0 0 396 247"  preserveAspectRatio="xMidYMid meet" height="1247" width="2000" xmlns="http://www.w3.org/2000/svg" xmlns:xlink="http://www.w3.org/1999/xlink"><g id="tight-bounds" transform="matrix(1,0,0,1,0.2400000000000091,-0.09999999999999432)"><svg viewBox="0 0 395.52 247.2" height="247.2" width="395.52"><g><svg></svg></g><g><svg viewBox="0 0 395.52 247.2" height="247.2" width="395.52"><g transform="matrix(1,0,0,1,75.54432000000001,71.48622730466383)"><svg viewBox="0 0 244.43135999999996 104.22754539067232" height="104.22754539067232" width="244.43135999999996"><g><svg viewBox="0 0 244.43135999999996 104.22754539067232" height="104.22754539067232" width="244.43135999999996"><g><svg viewBox="0 0 244.43135999999996 104.22754539067232" height="104.22754539067232" width="244.43135999999996"><g><svg viewBox="0 0 244.43135999999996 104.22754539067232" height="104.22754539067232" width="244.43135999999996"><g id="textblocktransform"><svg viewBox="0 0 244.43135999999996 104.22754539067232" height="104.22754539067232" width="244.43135999999996" id="textblock"><g><svg viewBox="0 0 244.43135999999996 104.22754539067232" height="104.22754539067232" width="244.43135999999996"><g transform="matrix(1,0,0,1,0,0)"><svg width="244.43135999999996" viewBox="3.85 -34.85 82.55000000000001 35.2" height="104.22754539067232" data-palette-color="#2363c2"><path d="M26.15-34.85L30.7-34.85 30.7 0 26.15 0 26.15-15.8 8.4-15.8 8.4 0 3.85 0 3.85-34.85 8.4-34.85 8.4-19.55 26.15-19.55 26.15-34.85ZM62.25 0L56.8 0 48.5-14.25 43-14.25 43 0 38.45 0 38.45-34.85 49.7-34.85Q53.65-34.85 56.37-33.5 59.1-32.15 60.45-29.85 61.8-27.55 61.8-24.6L61.8-24.6Q61.8-21 59.72-18.25 57.65-15.5 53.5-14.6L53.5-14.6 62.25 0ZM43-31.1L43-17.9 49.7-17.9Q53.4-17.9 55.25-19.73 57.1-21.55 57.1-24.6L57.1-24.6Q57.1-27.7 55.27-29.4 53.45-31.1 49.7-31.1L49.7-31.1 43-31.1ZM81.8-34.85L86.4-34.85 86.4-9.1Q86.4-4.8 83.75-2.23 81.09 0.35 76.75 0.35L76.75 0.35Q72.34 0.35 69.7-2.27 67.05-4.9 67.05-9.45L67.05-9.45 71.59-9.45Q71.65-6.9 72.92-5.3 74.2-3.7 76.75-3.7L76.75-3.7Q79.3-3.7 80.55-5.23 81.8-6.75 81.8-9.1L81.8-9.1 81.8-34.85Z" opacity="1" transform="matrix(1,0,0,1,0,0)" fill="#2363c2" class="wordmark-text-0" data-fill-palette-color="primary" id="text-0"></path></svg></g></svg></g></svg></g></svg></g></svg></g></svg></g></svg></g><g><path d="M0 123.6c0-68.262 55.338-123.6 123.6-123.6 44.661 0 83.789 23.687 105.508 59.183l-5.552 0c-21.17-32.783-58.029-54.484-99.956-54.483-65.667 0-118.9 53.233-118.9 118.9 0 65.667 53.233 118.9 118.9 118.9 41.927 0 78.786-21.701 99.956-54.483l5.552 0c-21.718 35.496-60.847 59.183-105.508 59.183-68.262 0-123.6-55.338-123.6-123.6z" fill="#2363c2" stroke="transparent" data-fill-palette-color="tertiary"></path></g></svg></g><defs></defs></svg><rect width="395.52" height="247.2" fill="none" stroke="none" visibility="hidden"></rect></g></svg></g></svg>